
<svg xmlns="http://www.w3.org/2000/svg" viewBox="0 0 100 125"><path d="M70 83c0 1.1-.9 2-2 2H30c-1.1 0-2-.9-2-2s.9-2 2-2h38c1.1 0 2 .9 2 2zm12.3 9.4c-1.5 1.7-3.7 2.6-5.9 2.6H23.6c-2.2 0-4.4-.9-5.9-2.6-1.5-1.7-2.3-3.9-2.1-6.1L21 26.8c.1-1 1-1.8 2-1.8h10v-3c0-9.4 7.6-17 17-17s17 7.6 17 17v3h10c1 0 1.9.8 2 1.8l5.4 59.5c.2 2.2-.6 4.4-2.1 6.1zM37 25h26v-3c0-7.2-5.8-13-13-13s-13 5.8-13 13v3zm43.4 61.6L75.2 29H67v7c0 1.1-.9 2-2 2s-2-.9-2-2v-7H37v7c0 1.1-.9 2-2 2s-2-.9-2-2v-7h-8.2l-5.2 57.6c-.1 1.1.3 2.2 1 3.1s1.8 1.3 3 1.3h52.9c1.1 0 2.2-.5 3-1.3.7-.8 1-1.9.9-3.1z"/></svg>